<?xml version="1.0" encoding="UTF-8"?>
<svg id="_レイヤー_1" data-name="レイヤー_1" xmlns="http://www.w3.org/2000/svg" version="1.1" viewBox="0 0 92 92">
  <!-- Generator: Adobe Illustrator 29.3.1, SVG Export Plug-In . SVG Version: 2.1.0 Build 151)  -->
  <defs>
    <style>
      .st0 {
        fill: #ea5352;
      }

      .st1, .st2 {
        fill: #fff;
      }

      .st2 {
        font-family: Meiryo, Meiryo;
        font-size: 16px;
      }
    </style>
  </defs>
  <path class="st0" d="M0,84.8V7C0,3.1,3.1,0,7,0h78C88.9,0,92,3.1,92,7v77.8c0,3.9-3.1,7-7,7H7c-3.9,0-7-3.1-7-7Z"/>
  <text class="st2" transform="translate(9.3 79.8)"><tspan x="0" y="0">ALL PLAY</tspan></text>
  <path class="st1" d="M60,50.6h-27.8c-1.6,0-2.7-1.2-2.7-2.7v-27.8c0-1.6,1.2-2.7,2.7-2.7h27.7c1.6,0,2.7,1.2,2.7,2.7v27.8c0,1.4-1.2,2.7-2.5,2.7Z"/>
</svg>