<?xml version="1.0" encoding="UTF-8"?>
<svg id="_レイヤー_1" data-name="レイヤー_1" xmlns="http://www.w3.org/2000/svg" version="1.1" viewBox="0 0 92 92">
  <!-- Generator: Adobe Illustrator 29.3.1, SVG Export Plug-In . SVG Version: 2.1.0 Build 151)  -->
  <defs>
    <style>
      .st0, .st1 {
        fill: #fff;
      }

      .st1 {
        font-family: Meiryo, Meiryo;
        font-size: 16px;
      }

      .st2 {
        fill: #1aa4be;
      }
    </style>
  </defs>
  <path class="st2" d="M0,84.8V7C0,3.1,3.1,0,7,0h78c3.9,0,7,3.1,7,7v77.8c0,3.9-3.1,7-7,7H7c-3.9,0-7-3.1-7-7Z"/>
  <path class="st0" d="M27,52.8V15c0-1,.5-2,1.4-2.5s2-.5,2.9,0l32.5,18.9c.9.5,1.4,1.5,1.4,2.5s-.5,2-1.4,2.5l-32.5,18.9c-.4.3-.9.4-1.4.4-.5,0-1-.1-1.4-.4-.9-.5-1.4-1.5-1.4-2.5h0Z"/>
  <text class="st1" transform="translate(9.4 79.8)"><tspan x="0" y="0">ALL PLAY</tspan></text>
</svg>