<?xml version="1.0" encoding="UTF-8"?>
<svg xmlns="http://www.w3.org/2000/svg" version="1.1" viewBox="0 0 40 40">
  <defs>
    <style>
      .cls-1 {
        display: none;
      }

      .cls-2 {
        fill: #b91f00;
      }
    </style>
  </defs>
  <!-- Generator: Adobe Illustrator 28.7.5, SVG Export Plug-In . SVG Version: 1.2.0 Build 176)  -->
  <g>
    <g id="_レイヤー_2" data-name="レイヤー_2" class="cls-1">
      <line class="cls-2" x2="40" y2="40"/>
      <line class="cls-2" x1="40" y2="40"/>
      <line class="cls-2" y1="32.7" x2="40" y2="32.7"/>
      <line class="cls-2" y1="20" x2="40" y2="20"/>
      <line class="cls-2" x1="20" x2="20" y2="40"/>
      <path class="cls-2" d="M-101.2,114.8c-.7.1-1.4.2-2.2.2-1.7,0-3-.2-3.8-.6-2.5-1.2-4.3-2.7-5.4-4.5-.8-1.3-1.2-3-1.4-5.1-.1-1.8.3-3.6,1.3-5.5.8-1.7,1.9-3.1,3.1-4.3,1.3-1.2,2.8-2.4,4.4-3.7,0-.4-.2-1.3-.4-2.7,0-1.3-.1-2.2-.1-2.6,0-1.3.1-2.5.3-3.7.2-1.1.8-2.3,1.7-3.8,1-1.6,1.8-2.4,2.6-2.4.6,0,1.2.9,2,2.7s1.1,3.4,1.2,4.6c0,1.7-.1,3.2-.5,4.4-.3.8-.7,1.8-1.4,3-.3.5-.9,1.3-1.8,2.4-.3.3-.6.7-1,1-.3.3-.7.6-1,.8l.9,5.3c.2,0,.5,0,.8,0,.7,0,1.5.1,2.2.3.7.2,1.3.4,1.6.7,1.7,1.3,2.6,3,2.8,5.4.1,1.6-.2,3.1-1.1,4.5-.9,1.5-2.3,2.6-4.1,3.3l.7,4.7c.1.9.2,1.6.2,2.3,0,.9-.1,1.6-.4,2.1-1,1.9-2.5,2.9-4.5,3-1.2,0-2.4-.2-3.6-.8-1.4-.7-2.2-1.7-2.3-3.1,0-1,.1-1.8.6-2.5.5-.8,1.3-1.2,2.3-1.3.7,0,1.3.2,2,.7.6.5,1,1.1,1,1.9.1,1.6-.9,2.7-3,3.3.5.7,1.5,1.1,2.9,1.1s1.5-.2,2.3-.7c.7-.5,1.3-1.1,1.7-1.8.3-.5.4-1.2.4-2.1s0-1.2-.1-2c0-.3-.3-1.9-.7-4.6ZM-102.9,104.3c-1.3,0-2.3.5-3,1.4-.5.7-.7,1.5-.7,2.3,0,.6.3,1.3.7,1.9.4.7.9,1.1,1.4,1.4,0,0-.2.2-.3.3-1-.5-1.8-1.1-2.3-1.8-.7-1-1.1-2.1-1.2-3.3,0-.8.1-1.6.5-2.5.5-.9,1.1-1.8,2-2.4.7-.5,1.4-.9,2.2-1.1l-.8-4.9c-.6.3-1.5,1.1-2.7,2.1-1.4,1.3-2.5,2.4-3.1,3.5-1.4,2.2-2.1,4.1-1.9,5.7.1,2,1,3.7,2.7,5.1,1.7,1.4,3.6,2.1,5.8,2.1s1.4,0,2.1-.2c-.5-3.2-1.1-6.4-1.6-9.7ZM-100.6,80.4c-1.1,0-2.1.9-2.8,2.7-.7,1.6-1.1,3.5-1.1,5.7s0,1.4.1,2c1.4-1.1,2.6-2.3,3.6-3.7,1.3-1.7,1.8-3.1,1.7-4.3-.1-1.6-.7-2.4-1.6-2.3ZM-102.2,104.2l1.5,9.5c2.3-.8,3.4-2.6,3.2-5.4-.2-2.9-1.8-4.3-4.7-4.1Z"/>
      <path class="cls-2" d="M-72.8,104c-.5,1-1.2,2-2.1,3-.9,1-1.8,1.8-2.7,2.6-1.1.8-2.5,1.6-4.1,2.1-1,.4-2.5.7-4.4,1.1l-.2-.4c.9-.3,1.8-.6,2.6-1,1.9-.9,3.3-1.8,4.3-2.8,3-3.2,4.5-7,4.4-11.6,0-1.5-.3-2.8-.8-3.9-.7-1.5-1.8-2.3-3.3-2.3s-2.1.4-3.1,1.1c-1.1.8-1.6,1.7-1.5,2.7,0,0,0,0,.1,0,1-.3,1.7-.4,2.2-.4.6,0,1.1.3,1.5.9.4.6.6,1.2.6,1.9s-.2,1.4-.7,1.9c-.4.5-1.1.8-1.8.8s-1.7-.3-2.4-.9c-.7-.6-1-1.4-1-2.4,0-2.4.9-4.2,2.7-5.4,1.2-.7,2.5-1.1,4-1.1,1.4,0,2.8.4,4.1,1.3,1.3.9,2.2,2.1,2.7,3.5.3.9.5,1.8.5,2.8s-.1,1.8-.3,2.8c-.2,1.1-.7,2.3-1.4,3.5ZM-70,93.6c0-.4.1-.8.4-1s.6-.4,1-.4.8.1,1.1.4c.3.3.4.6.4,1s-.1.8-.4,1.1c-.3.3-.6.4-1,.4s-.8-.1-1.1-.4c-.3-.3-.4-.6-.4-1ZM-70,100.4c0-.4.1-.7.4-1,.3-.3.6-.4,1.1-.4s.8.1,1.1.4c.3.3.4.6.4,1s-.1.8-.4,1.1c-.3.3-.6.4-1,.4s-.8-.1-1.1-.4c-.3-.3-.5-.6-.5-1Z"/>
      <path class="cls-2" d="M-15.2,99.7H-6.5v3.5h-8.7v-3.5Z"/>
      <path class="cls-2" d="M52.9,107.8c-.8-.4-1.6-.5-2.2-.5s-1.1.2-1.5.5c-.4.4-.6.8-.6,1.4s.5,1.2,1.4,2.1l-.3.3c-.6-.4-1.2-.8-1.6-1.2-1.1-1-1.7-1.9-1.8-2.7,0-.7,0-1.2.5-1.8.4-.5,1-.8,1.7-.9.5,0,1.2,0,2.1.2-2.7-2.7-4-4.3-3.8-4.8,1.6-1.9,2.3-3.5,2.3-4.9s-.6-2.1-1.9-4.1l.4-.3,5,6.2c-1.6,2-2.3,3.5-2.3,4.8s.5,2.1,1.5,3.3c.9,1.1,1.4,1.7,1.4,1.7v.4Z"/>
      <path class="cls-2" d="M63.7,95.2c.2,0,.4,0,.5,0,.6,0,1,.3,1.4.8.3.4.4.9.4,1.5s0,.5-.1.7c.7,0,1.2-.3,1.5-.7.2-.3.6-.7,1.1-1.3l.4.2-3,11.4h-1.1c.3-1.1.9-2.6,1.5-4.5.7-1.9,1.2-3.6,1.4-5-1.5,1.1-2.6,1.7-3.6,1.7-.7,0-1.3-.2-1.8-.7-.5-.5-.7-1-.7-1.7,0-1.3.7-2,2-2.4Z"/>
      <path class="cls-2" d="M81.5,91.7c.2,0,.4,0,.5,0,.6,0,1,.3,1.4.8.3.4.4,1,.4,1.6s0,.5,0,.7c.5,0,1-.3,1.5-.7.2-.1.4-.4.6-.6.3-.5.5-.7.5-.7l.4.2c-.7,2.7-2.3,8.9-4.8,18.5h-1.1c.4-1.1.9-2.7,1.6-4.5.6-2,1-3.7,1.4-5-1.4,1.1-2.6,1.7-3.6,1.7-.7,0-1.3-.2-1.8-.7-.5-.5-.7-1-.7-1.7,0-1.3.7-2,2-2.4.2,0,.4,0,.5,0,.6,0,1,.3,1.4.8.3.4.4.9.4,1.5s0,.5,0,.7c.6,0,1.1-.3,1.5-.6.3-.3.7-.9,1-1.7,0,0,.2-.8.6-2.3.4-1.5.6-2.3.6-2.3-1.4,1.1-2.6,1.6-3.6,1.7-.7,0-1.3-.2-1.8-.7-.4-.5-.7-1-.7-1.7,0-1.3.6-2,1.9-2.4Z"/>
      <path class="cls-2" d="M101.1,88.3c.2,0,.4,0,.5,0,.6,0,1,.3,1.4.8.3.4.4.9.4,1.5s0,.5,0,.7c.7,0,1.3-.3,1.6-.7s.6-.6,1-1.3l.4.2-6.7,25.2h-1.1c.4-1.1.9-2.6,1.6-4.5.6-2,1.1-3.7,1.5-5.2-1.6,1.2-2.8,1.8-3.7,1.8-.7,0-1.3-.2-1.8-.7-.5-.5-.7-1-.7-1.7,0-1.3.7-2,2-2.4.2,0,.4,0,.5,0,.6,0,1,.3,1.3.8.3.4.4.9.4,1.5s0,.5-.1.7c.6,0,1.2-.2,1.6-.5.4-.3.8-.9,1-1.6.5-1.8,1-3.5,1.3-5-1.6,1.2-2.9,1.9-3.8,1.9-.7,0-1.3-.2-1.8-.7-.4-.5-.7-1-.7-1.7,0-1.3.6-2,1.9-2.4.2,0,.4,0,.5,0,.6,0,1,.3,1.4.8.3.4.4.9.4,1.5s0,.5,0,.7c.7,0,1.2-.3,1.5-.6.3-.3.5-.6.6-.7.2-.3.4-.7.5-1.3l1.1-4.3c-1.6,1.2-2.8,1.8-3.7,1.9-.7,0-1.3-.2-1.8-.7-.4-.5-.7-1-.7-1.7,0-1.3.6-2,1.9-2.4Z"/>
      <path class="cls-2" d="M122.6,84.9c.2,0,.4,0,.5,0,.6,0,1,.3,1.4.8.3.4.4.9.4,1.5s0,.5,0,.7c.7,0,1.2-.3,1.6-.7.2-.3.6-.7,1-1.3l.4.2-8.5,32.1h-1.1c.4-1,.9-2.3,1.5-4.1l1.6-5.8c-1.6,1.2-2.8,1.8-3.7,1.8-.7,0-1.3-.2-1.8-.7-.5-.5-.7-1-.7-1.7,0-1.3.7-2,2-2.4.2,0,.4,0,.5,0,.6,0,1,.3,1.4.8.3.4.4.9.4,1.5s0,.5-.1.7c.5,0,1.1-.3,1.5-.6.2-.2.4-.3.5-.5.2-.3.4-.6.5-1.1.5-1.8,1-3.4,1.4-4.8-.7.5-1.2.9-1.7,1.1-.9.5-1.6.8-2.1.8-.7,0-1.3-.2-1.8-.6-.5-.5-.7-1-.7-1.7,0-1.3.7-2,2-2.4.2,0,.4,0,.5,0,.6,0,1,.2,1.3.7.3.5.5,1,.5,1.6s0,.5-.1.7c.5,0,1-.2,1.6-.6.5-.3.8-1,1.1-2,.4-1.6.8-3,1.1-4.3-1.6,1.2-2.8,1.8-3.7,1.9-.7,0-1.3-.2-1.8-.7-.5-.5-.7-1-.7-1.7,0-1.3.7-2,2-2.4.2,0,.4,0,.5,0,.6,0,1,.3,1.3.8.3.4.4.9.4,1.5s0,.5-.1.7c.6,0,1.1-.2,1.6-.5.4-.3.8-.9,1-1.8l1.1-4.4c-1.4,1.1-2.6,1.7-3.6,1.7-.7,0-1.3-.2-1.8-.7-.4-.5-.7-1-.7-1.7,0-1.3.6-2,1.9-2.4Z"/>
      <path class="cls-2" d="M145.9,81.4c.2,0,.4,0,.5,0,.6,0,1,.3,1.4.8.3.4.4.9.4,1.5s0,.5,0,.7c.5,0,1-.2,1.4-.5.4-.3.8-.8,1.2-1.5l.4.2-10.3,39h-1.1c.4-1,.9-2.3,1.5-4.1.5-2,1-3.9,1.6-5.6-1.6,1.2-2.8,1.8-3.7,1.9-.7,0-1.3-.2-1.8-.7-.4-.5-.7-1-.7-1.7,0-1.3.6-2,1.9-2.4.2,0,.4,0,.5,0,.6,0,1,.3,1.3.8.3.4.4.9.4,1.5s0,.5-.1.7c.6,0,1.1-.2,1.5-.6.3-.2.4-.3.5-.5.2-.3.4-.6.5-1.1.5-1.8.9-3.5,1.3-5-.7.5-1.2.9-1.6,1.1-.9.5-1.6.8-2.1.8-.7,0-1.3-.2-1.8-.7-.4-.5-.7-1-.7-1.7,0-1.3.6-2,1.9-2.4.2,0,.4,0,.5,0,.6,0,1,.3,1.4.8.3.4.4,1,.4,1.6s0,.5,0,.7c.5,0,1.1-.3,1.6-.6.5-.3.8-1,1.1-2,.4-1.6.8-3,1.1-4.3-.7.5-1.3.9-1.6,1.1-.8.5-1.5.8-2.1.8-.7,0-1.3-.2-1.8-.7-.4-.5-.7-1-.7-1.7,0-1.3.6-2,1.9-2.4.2,0,.4,0,.5,0,.6,0,1,.3,1.4.8.3.4.4,1,.4,1.6s0,.5,0,.7c.6,0,1.1-.2,1.5-.6.5-.3.8-.9,1.1-1.8.4-1.5.8-2.9,1.1-4.4-1.5,1.1-2.7,1.7-3.6,1.7-.7,0-1.3-.2-1.8-.7-.4-.5-.7-1-.7-1.7,0-1.3.7-2.1,2-2.4.2,0,.4,0,.5,0,.6,0,1,.3,1.4.8.3.4.4,1,.4,1.6s0,.5,0,.7c.7,0,1.3-.3,1.6-.5.5-.4.9-1,1-1.7l.3-1.3c.4-1.5.6-2.6.8-3.3-1.4,1.1-2.6,1.6-3.6,1.7-.7,0-1.3-.2-1.8-.7-.4-.5-.7-1-.7-1.7,0-1.3.6-2,1.9-2.4Z"/>
    </g>
    <g id="_レイヤー_1" data-name="レイヤー_1">
      <path d="M24.2,30.3c.1.3.2.6.2,1s0,1.1-.3,1.6c-.5,1.3-1.3,2.3-2.5,2.9-.9.4-1.9.6-3.1.5-1.3-.1-2.2-.5-2.6-1.2-.2-.3-.3-.7-.3-1.1s.1-.9.3-1.4c.4-1.1,1.2-2.1,2.4-2.7.8-.5,1.7-.7,2.8-.7s.5,0,.8,0c.5,0,.9.1,1.2.2.6.2.9.5,1.2.9ZM23.6,30.8c-.2-.3-.5-.5-1-.5s-1,.2-1.6.5c-.1,0-.7.3-1.6.9-.4.2-.9.5-1.6,1-.9.6-1.4,1.2-1.4,1.8s0,.3.1.5c.2.3.5.5,1,.5s1-.2,1.6-.5c1.3-.6,2.3-1.2,3.2-1.8.9-.6,1.4-1.2,1.4-1.7s0-.3-.1-.5Z"/>
      <g>
        <path d="M-104.6,74.3c.1.3.2.6.2,1s0,1.1-.3,1.6c-.5,1.3-1.3,2.3-2.5,2.9-.9.4-1.9.6-3.1.5-1.3-.1-2.2-.5-2.6-1.2-.2-.3-.3-.7-.3-1.1s.1-.9.3-1.4c.4-1.1,1.2-2.1,2.4-2.7.8-.5,1.7-.7,2.8-.7s.5,0,.8,0c.5,0,.9.1,1.2.2.6.2.9.5,1.2.9ZM-105.3,74.7c-.2-.3-.5-.5-1-.5s-1,.2-1.6.5c-.1,0-.7.3-1.6.9-.4.2-.9.5-1.6,1-.9.6-1.4,1.2-1.4,1.8s0,.3.1.5c.2.3.5.5,1,.5s1-.2,1.6-.5c1.3-.6,2.3-1.2,3.2-1.8.9-.6,1.4-1.2,1.4-1.7s0-.3-.1-.5Z"/>
        <path d="M-100.9,76.1c0-.4.1-.7.4-1,.3-.3.6-.4,1-.4s.7.1,1,.4c.3.3.4.6.4,1s-.1.7-.4,1c-.3.3-.6.4-1,.4s-.7-.1-1-.4c-.3-.3-.4-.6-.4-1Z"/>
      </g>
      <path d="M-138.2,75.7c0,.4,0,.7-.2,1.1-.4.9-1.1,1.8-2.1,2.4-1,.7-2.1,1-3.3,1-.9,0-1.6-.3-2.2-.7-.5-.5-.8-1.1-.8-1.8s0-.7.2-1c.3-.9,1-1.8,2.1-2.4,1.1-.7,2.1-1,3.3-1,1.1,0,2,.3,2.5,1,.4.5.5.9.5,1.4Z"/>
      <path d="M-90,75.8c0-.9.4-1.7,1.4-2.5,1.1-.7,2.3-1.1,3.8-1.1s3,.3,4.1.9c1.2.7,1.9,1.6,2,2.8,0,.9-.4,1.7-1.4,2.4-1,.7-2.3,1.1-3.8,1.1s-3-.3-4.1-.9c-1.2-.6-1.9-1.6-2-2.7ZM-86.7,75.3c.2,1.1.4,2,.8,2.5.4.7,1.1,1,1.9,1s1.1-.2,1.5-.7c.4-.5.6-1,.5-1.5-.3-2.4-1.3-3.5-2.7-3.5s-1.1.2-1.5.7c-.4.5-.5,1-.4,1.5Z"/>
      <g>
        <path d="M-70.6,75.8c0-.9.4-1.7,1.4-2.5,1.1-.7,2.3-1.1,3.8-1.1s3,.3,4.1.9c1.2.7,1.9,1.6,2,2.8,0,.9-.4,1.7-1.4,2.4-1,.7-2.3,1.1-3.8,1.1s-3-.3-4.1-.9c-1.2-.6-1.9-1.6-2-2.7ZM-67.3,75.3c.2,1.1.4,2,.8,2.5.4.7,1.1,1,1.9,1s1.1-.2,1.5-.7c.4-.5.6-1,.5-1.5-.3-2.4-1.3-3.5-2.7-3.5s-1.1.2-1.5.7c-.4.5-.5,1-.4,1.5Z"/>
        <path d="M-57.4,75.3c0-.4.1-.7.4-1,.3-.3.6-.4,1-.4s.7.1,1,.4c.3.3.4.6.4,1s-.1.7-.4,1c-.3.3-.6.4-1,.4s-.7-.1-1-.4c-.3-.3-.4-.6-.4-1Z"/>
      </g>
      <path d="M-46.4,78.1c-.1-.2-.2-.5-.2-.9,0-.5.1-1.1.3-1.7.5-1.4,1.3-2.4,2.5-3,.7-.4,1.6-.5,2.6-.5s.4,0,.6,0c1.1,0,1.9.4,2.4.9v-21.5h.5v22.9h0c0,.2,0,.3,0,.3,0,.3-.1.7-.3,1.2-.4,1.2-1.3,2.1-2.4,2.8-.8.5-1.8.7-2.8.7s-.5,0-.8,0c-.5,0-.9-.1-1.2-.2-.6-.2-.9-.5-1.2-.9ZM-45.7,77.7c.2.4.6.5,1,.5s1-.2,1.7-.5c.8-.4,1.9-1,3.2-1.9,1-.6,1.4-1.2,1.4-1.8s0-.3-.1-.5c-.2-.4-.6-.5-1-.5s-1,.2-1.7.5c-1.1.6-2.2,1.2-3.3,1.9-1,.6-1.4,1.2-1.4,1.8s0,.4.2.5Z"/>
      <g>
        <path d="M-29.3,78.1c-.1-.2-.2-.5-.2-.9,0-.5.1-1.1.3-1.7.5-1.4,1.3-2.4,2.5-3,.7-.4,1.6-.5,2.6-.5s.4,0,.6,0c1.1,0,1.9.4,2.4.9v-21.5h.5v22.9h0c0,.2,0,.3,0,.3,0,.3-.1.7-.3,1.2-.4,1.2-1.3,2.1-2.4,2.8-.8.5-1.8.7-2.8.7s-.5,0-.8,0c-.5,0-.9-.1-1.2-.2-.6-.2-.9-.5-1.2-.9ZM-28.6,77.7c.2.4.6.5,1,.5s1-.2,1.7-.5c.8-.4,1.9-1,3.2-1.9,1-.6,1.4-1.2,1.4-1.8s0-.3-.1-.5c-.2-.4-.6-.5-1-.5s-1,.2-1.7.5c-1.1.6-2.2,1.2-3.3,1.9-1,.6-1.4,1.2-1.4,1.8s0,.4.2.5Z"/>
        <path d="M-18.4,74.8c0-.4.1-.7.4-1,.3-.3.6-.4,1-.4s.7.1,1,.4c.3.3.4.6.4,1s-.1.7-.4,1c-.3.3-.6.4-1,.4s-.7-.1-1-.4c-.3-.3-.4-.6-.4-1Z"/>
      </g>
      <g>
        <path d="M-7.4,75.8c.3-.9,1-1.8,2.1-2.4,1.1-.7,2.1-1,3.3-1,1.1,0,1.9.3,2.5,1v-21.5h.5v22.8c0,.4,0,.8-.2,1.2-.4.9-1.1,1.8-2.1,2.4-1,.7-2.1,1-3.3,1-.9,0-1.6-.3-2.2-.7-.5-.5-.8-1.1-.8-1.8s0-.7.2-1Z"/>
        <path d="M2.9,74.8c0-.4.1-.7.4-1,.3-.3.6-.4,1-.4s.7.1,1,.4c.3.3.4.6.4,1s-.1.7-.4,1c-.3.3-.6.4-1,.4s-.7-.1-1-.4c-.3-.3-.4-.6-.4-1Z"/>
      </g>
      <path d="M14,75.8c.4-.9,1.1-1.8,2.1-2.4,1-.7,2.1-1,3.2-1,1.1,0,1.9.4,2.5,1v-21.6h.5c0,1.4.5,2.7,1.4,4,.7.9,1.7,2.3,3,4.3.4.7.8,1.6,1.2,2.6.3.9.5,1.7.6,2.3.2,1.2.2,2.3.2,3.3,0,1.7-.3,3.2-.8,4.6l-.3-.2c.5-1.2.7-2.7.7-4.5s-.2-2.9-.7-4.2c-.7-2.1-1.7-3.5-2.9-4.3-.7-.5-1.5-.8-2.4-.8v15.8c0,.5,0,.9-.2,1.3-.4.9-1.1,1.8-2.1,2.4-1,.7-2.1,1-3.3,1-.9,0-1.6-.3-2.2-.7-.6-.5-.8-1-.8-1.8s0-.7.2-1Z"/>
      <g>
        <path d="M37,75.8c.4-.9,1.1-1.8,2.1-2.4,1-.7,2.1-1,3.2-1,1.1,0,1.9.4,2.5,1v-21.6h.5c0,1.4.5,2.7,1.4,4,.7.9,1.7,2.3,3,4.3.4.7.8,1.6,1.2,2.6.3.9.5,1.7.6,2.3.2,1.2.2,2.3.2,3.3,0,1.7-.3,3.2-.8,4.6l-.3-.2c.5-1.2.7-2.7.7-4.5s-.2-2.9-.7-4.2c-.7-2.1-1.7-3.5-2.9-4.3-.7-.5-1.5-.8-2.4-.8v15.8c0,.5,0,.9-.2,1.3-.4.9-1.1,1.8-2.1,2.4-1,.7-2.1,1-3.3,1-.9,0-1.6-.3-2.2-.7-.6-.5-.8-1-.8-1.8s0-.7.2-1Z"/>
        <path d="M47.4,74.8c0-.4.1-.7.4-1,.3-.3.6-.4,1-.4s.7.1,1,.4c.3.3.4.6.4,1s-.1.7-.4,1c-.3.3-.6.4-1,.4s-.7-.1-1-.4c-.3-.3-.4-.6-.4-1Z"/>
      </g>
      <path d="M75.9,72.4c0,1.3-.2,2.7-.9,4h-.3c.5-1.5.8-2.7.8-3.7,0-1-.3-2.2-.8-3.6-.6-1.6-1.5-2.9-2.9-3.9-.8-.6-2-1.1-3.4-1.6v11.1c0,.4,0,.7-.2,1.1-.4.9-1.1,1.8-2.1,2.4-1,.7-2.1,1-3.3,1-.9,0-1.6-.3-2.2-.7-.5-.5-.8-1.1-.8-1.8s0-.7.2-1c.3-.9,1-1.8,2.1-2.4,1.1-.7,2.1-1,3.3-1,1.1,0,1.9.3,2.5,1v-20.4h.5c0,.8.2,1.5.5,1.9,0,.1.5.5,1.2,1,1.5,1.2,2.7,2.4,3.7,3.8.6.8,1,1.3,1.1,1.5.3.5.5,1.1.7,1.7.2,1,.2,1.9,0,2.8-.2.9-.5,1.6-.8,2.1.2.4.4.9.6,1.7.1.5.3,1.5.5,2.9ZM75.2,65.4c0-.7,0-1,0-1h0c0,0,0-.4-.2-.8-.6-1.9-1.9-3.4-4-4.5-.8-.4-1.7-.6-2.6-.7,0,.2,0,.3,0,.4,0,.6.2,1,.5,1.4,0,0,.4.5,1.1,1.2.6.6,1.2,1.3,1.8,1.9.7.8,1.4,1.6,1.9,2.4.2.4.6.9.9,1.7.3-.6.5-1.3.6-1.9Z"/>
      <g>
        <path d="M100,72.4c0,1.3-.2,2.7-.9,4h-.3c.5-1.5.8-2.7.8-3.7,0-1-.3-2.2-.8-3.6-.6-1.6-1.5-2.9-2.9-3.9-.8-.6-2-1.1-3.4-1.6v11.1c0,.4,0,.7-.2,1.1-.4.9-1.1,1.8-2.1,2.4-1,.7-2.1,1-3.3,1-.9,0-1.6-.3-2.2-.7-.5-.5-.8-1.1-.8-1.8s0-.7.2-1c.3-.9,1-1.8,2.1-2.4,1.1-.7,2.1-1,3.3-1,1.1,0,1.9.3,2.5,1v-20.4h.5c0,.8.2,1.5.5,1.9,0,.1.5.5,1.2,1,1.5,1.2,2.7,2.4,3.7,3.8.6.8,1,1.3,1.1,1.5.3.5.5,1.1.7,1.7.2,1,.2,1.9,0,2.8-.2.9-.5,1.6-.8,2.1.2.4.4.9.6,1.7.1.5.3,1.5.5,2.9ZM99.4,65.4c0-.7,0-1,0-1h0c0,0,0-.4-.2-.8-.6-1.9-1.9-3.4-4-4.5-.8-.4-1.7-.6-2.6-.7,0,.2,0,.3,0,.4,0,.6.2,1,.5,1.4,0,0,.4.5,1.1,1.2.6.6,1.2,1.3,1.8,1.9.7.8,1.4,1.6,1.9,2.4.2.4.6.9.9,1.7.3-.6.5-1.3.6-1.9Z"/>
        <path d="M94.7,74.8c0-.4.1-.7.4-1,.3-.3.6-.4,1-.4s.7.1,1,.4c.3.3.4.6.4,1s-.1.7-.4,1c-.3.3-.6.4-1,.4s-.7-.1-1-.4c-.3-.3-.4-.6-.4-1Z"/>
      </g>
      <g>
        <path d="M172.2,70.2c-.2.8-.5,1.7-1.1,2.6h0c0,.1.2.6.2.6.3.6.5,1.2.6,1.7.1.5.3,1.5.5,2.9,0,.8,0,1.5-.2,2.3-.2.6-.4,1.2-.6,1.8h-.3c.6-1.4.8-2.6.8-3.7,0-.9-.3-2.1-.8-3.6-.6-1.7-1.5-3-2.8-3.9-.8-.6-2-1.1-3.4-1.6-.2,0-.4,0-.5,0v-13.5h.4c0,1,.7,2.4,2,4.2.3.4.9,1,1.7,1.7.8.7,1.5,1.4,1.9,2,1.1,1.5,1.7,2.8,1.9,3.8.1,1,0,1.9,0,2.7ZM164.9,62.4c0,0,0,.5,0,1.3,0,.9.7,2,1.8,3.2,1,1.1,2.1,2.5,3.5,4.4.3.4.6.8.8,1.3.5-.9.8-1.8.9-2.4,0-.9,0-1.8-.2-2.5-.6-1.8-1.8-3.3-3.8-4.4-.8-.4-1.7-.6-2.8-.7Z"/>
        <path d="M171.4,66.4l-.3-.2c.4-.6.6-1.3.7-2.1,0-.9,0-1.7-.1-2.3-.6-2-1.9-3.6-3.9-4.6-.9-.5-2-.7-3.3-.7v-6.7h.4c0,1,.7,2.4,2,4.2.3.4.9,1,1.7,1.7.8.7,1.5,1.4,1.9,2,1.1,1.5,1.7,2.8,1.9,3.8.1,1,.1,2,0,2.8-.2.8-.4,1.5-.8,2.1Z"/>
        <path d="M171.4,60.2l-.3-.2c.4-.6.6-1.3.7-2.1,0-.9,0-1.7-.1-2.3-.6-2-1.9-3.6-3.9-4.6-.9-.5-2-.7-3.3-.7v-6.7h.4c0,1,.7,2.4,2,4.2.3.4.9,1,1.7,1.7.8.7,1.5,1.4,1.9,2,1.1,1.5,1.7,2.8,1.9,3.8.1,1,.1,2,0,2.8-.2.8-.4,1.5-.8,2.1Z"/>
        <path d="M156.5,75.7c.3-.9,1-1.8,2.1-2.4,1.1-.7,2.1-1,3.3-1,1.1,0,1.9.3,2.5,1v-23.6h.5v24.9c0,.4,0,.8-.2,1.2-.4.9-1.1,1.8-2.1,2.4-1,.7-2.1,1-3.3,1-.9,0-1.6-.3-2.2-.7-.5-.5-.8-1.1-.8-1.8s0-.7.2-1Z"/>
      </g>
      <g>
        <path d="M123.9,70.2c-.2.8-.5,1.7-1.1,2.6h0c0,.1.2.6.2.6.3.6.5,1.2.6,1.7.1.5.3,1.5.5,2.9,0,.8,0,1.5-.2,2.3-.2.6-.4,1.2-.6,1.8h-.3c.6-1.4.8-2.6.8-3.7,0-.9-.3-2.1-.8-3.6-.6-1.7-1.5-3-2.8-3.9-.8-.6-2-1.1-3.4-1.6-.2,0-.4,0-.5,0v-13.5h.4c0,1,.7,2.4,2,4.2.3.4.9,1,1.7,1.7.8.7,1.5,1.4,1.9,2,1.1,1.5,1.7,2.8,1.9,3.8.1,1,0,1.9,0,2.7ZM116.6,62.4c0,0,0,.5,0,1.3,0,.9.7,2,1.8,3.2,1,1.1,2.1,2.5,3.5,4.4.3.4.6.8.8,1.3.5-.9.8-1.8.9-2.4,0-.9,0-1.8-.2-2.5-.6-1.8-1.8-3.3-3.8-4.4-.8-.4-1.7-.6-2.8-.7Z"/>
        <path d="M123.1,66.4l-.3-.2c.4-.6.6-1.3.7-2.1,0-.9,0-1.7-.1-2.3-.6-2-1.9-3.6-3.9-4.6-.9-.5-2-.7-3.3-.7v-6.7h.4c0,1,.7,2.4,2,4.2.3.4.9,1,1.7,1.7.8.7,1.5,1.4,1.9,2,1.1,1.5,1.7,2.8,1.9,3.8.1,1,.1,2,0,2.8-.2.8-.4,1.5-.8,2.1Z"/>
        <path d="M108.3,75.7c.3-.9,1-1.8,2.1-2.4,1.1-.7,2.1-1,3.3-1,1.1,0,1.9.3,2.5,1v-23.6h.5v24.9c0,.4,0,.8-.2,1.2-.4.9-1.1,1.8-2.1,2.4-1,.7-2.1,1-3.3,1-.9,0-1.6-.3-2.2-.7-.5-.5-.8-1.1-.8-1.8s0-.7.2-1Z"/>
      </g>
      <g>
        <path d="M148.1,70.2c-.2.8-.5,1.7-1.1,2.6h0c0,.1.2.6.2.6.3.6.5,1.2.6,1.7.1.5.3,1.5.5,2.9,0,.8,0,1.5-.2,2.3-.2.6-.4,1.2-.6,1.8h-.3c.6-1.4.8-2.6.8-3.7,0-.9-.3-2.1-.8-3.6-.6-1.7-1.5-3-2.8-3.9-.8-.6-2-1.1-3.4-1.6-.2,0-.4,0-.5,0v-13.5h.4c0,1,.7,2.4,2,4.2.3.4.9,1,1.7,1.7.8.7,1.5,1.4,1.9,2,1.1,1.5,1.7,2.8,1.9,3.8.1,1,0,1.9,0,2.7ZM140.8,62.4c0,0,0,.5,0,1.3,0,.9.7,2,1.8,3.2,1,1.1,2.1,2.5,3.5,4.4.3.4.6.8.8,1.3.5-.9.8-1.8.9-2.4,0-.9,0-1.8-.2-2.5-.6-1.8-1.8-3.3-3.8-4.4-.8-.4-1.7-.6-2.8-.7Z"/>
        <path d="M147.3,66.4l-.3-.2c.4-.6.6-1.3.7-2.1,0-.9,0-1.7-.1-2.3-.6-2-1.9-3.6-3.9-4.6-.9-.5-2-.7-3.3-.7v-6.7h.4c0,1,.7,2.4,2,4.2.3.4.9,1,1.7,1.7.8.7,1.5,1.4,1.9,2,1.1,1.5,1.7,2.8,1.9,3.8.1,1,.1,2,0,2.8-.2.8-.4,1.5-.8,2.1Z"/>
        <path d="M132.4,75.7c.3-.9,1-1.8,2.1-2.4,1.1-.7,2.1-1,3.3-1,1.1,0,1.9.3,2.5,1v-23.6h.5v24.9c0,.4,0,.8-.2,1.2-.4.9-1.1,1.8-2.1,2.4-1,.7-2.1,1-3.3,1-.9,0-1.6-.3-2.2-.7-.5-.5-.8-1.1-.8-1.8s0-.7.2-1Z"/>
        <path d="M142.4,74.6c0-.4.1-.7.4-1,.3-.3.6-.4,1-.4s.7.1,1,.4c.3.3.4.6.4,1s-.1.7-.4,1c-.3.3-.6.4-1,.4s-.7-.1-1-.4c-.3-.3-.4-.6-.4-1Z"/>
      </g>
      <g>
        <path d="M196.3,70.2c-.2.8-.5,1.7-1.1,2.6h0c0,.1.2.6.2.6.3.6.5,1.2.6,1.7.1.5.3,1.5.5,2.9,0,.8,0,1.5-.2,2.3-.2.6-.4,1.2-.6,1.8h-.3c.6-1.4.8-2.6.8-3.7,0-.9-.3-2.1-.8-3.6-.6-1.7-1.5-3-2.8-3.9-.8-.6-2-1.1-3.4-1.6-.2,0-.4,0-.5,0v-13.5h.4c0,1,.7,2.4,2,4.2.3.4.9,1,1.7,1.7.8.7,1.5,1.4,1.9,2,1.1,1.5,1.7,2.8,1.9,3.8.1,1,0,1.9,0,2.7ZM189,62.4c0,0,0,.5,0,1.3,0,.9.7,2,1.8,3.2,1,1.1,2.1,2.5,3.5,4.4.3.4.6.8.8,1.3.5-.9.8-1.8.9-2.4,0-.9,0-1.8-.2-2.5-.6-1.8-1.8-3.3-3.8-4.4-.8-.4-1.7-.6-2.8-.7Z"/>
        <path d="M195.5,66.4l-.3-.2c.4-.6.6-1.3.7-2.1,0-.9,0-1.7-.1-2.3-.6-2-1.9-3.6-3.9-4.6-.9-.5-2-.7-3.3-.7v-6.7h.4c0,1,.7,2.4,2,4.2.3.4.9,1,1.7,1.7.8.7,1.5,1.4,1.9,2,1.1,1.5,1.7,2.8,1.9,3.8.1,1,.1,2,0,2.8-.2.8-.4,1.5-.8,2.1Z"/>
        <path d="M195.5,60.2l-.3-.2c.4-.6.6-1.3.7-2.1,0-.9,0-1.7-.1-2.3-.6-2-1.9-3.6-3.9-4.6-.9-.5-2-.7-3.3-.7v-6.7h.4c0,1,.7,2.4,2,4.2.3.4.9,1,1.7,1.7.8.7,1.5,1.4,1.9,2,1.1,1.5,1.7,2.8,1.9,3.8.1,1,.1,2,0,2.8-.2.8-.4,1.5-.8,2.1Z"/>
        <path d="M180.7,75.7c.3-.9,1-1.8,2.1-2.4,1.1-.7,2.1-1,3.3-1,1.1,0,1.9.3,2.5,1v-23.6h.5v24.9c0,.4,0,.8-.2,1.2-.4.9-1.1,1.8-2.1,2.4-1,.7-2.1,1-3.3,1-.9,0-1.6-.3-2.2-.7-.5-.5-.8-1.1-.8-1.8s0-.7.2-1Z"/>
        <path d="M190.6,74.6c0-.4.1-.7.4-1,.3-.3.6-.4,1-.4s.7.1,1,.4c.3.3.4.6.4,1s-.1.7-.4,1c-.3.3-.6.4-1,.4s-.7-.1-1-.4c-.3-.3-.4-.6-.4-1Z"/>
      </g>
    </g>
  </g>
</svg>